<svg width="32" height="32" viewBox="0 0 32 32" fill="none" xmlns="http://www.w3.org/2000/svg">
  <circle cx="16" cy="16" r="16" fill="url(#cortex_sphere_base)"/>

  <g opacity="0.4">
    <path d="M0 16 C 8 0, 24 0, 32 16" stroke="#4338CA" stroke-width="0.5"/>
    <path d="M0 16 C 8 32, 24 32, 32 16" stroke="#7E22CE" stroke-width="0.5"/>
    <path d="M16 0 C 0 8, 0 24, 16 32" stroke="#4338CA" stroke-width="0.5"/>
    <path d="M16 0 C 32 8, 32 24, 16 32" stroke="#7E22CE" stroke-width="0.5"/>
  </g>

  <g stroke-linecap="round">
    <path d="M2 12 C 10 16, 14 16, 16 16 C 18 16, 22 16, 30 12" stroke="url(#cortex_active_horiz)" stroke-width="1.2"/>
    <path d="M2 20 C 10 16, 14 16, 16 16 C 18 16, 22 16, 30 20" stroke="url(#cortex_active_horiz)" stroke-width="1.2"/>
    <path d="M12 2 C 16 10, 16 14, 16 16 C 16 18, 16 22, 12 30" stroke="url(#cortex_active_vert)" stroke-width="1.2"/>
    <path d="M20 2 C 16 10, 16 14, 16 16 C 16 18, 16 22, 20 30" stroke="url(#cortex_active_vert)" stroke-width="1.2"/>
  </g>

  <circle cx="16" cy="16" r="2.2" fill="white"/> <circle cx="11" cy="11" r="1.5" fill="white"/>
  <circle cx="21" cy="11" r="1.5" fill="white"/>
  <circle cx="11" cy="21" r="1.5" fill="white"/>
  <circle cx="21" cy="21" r="1.5" fill="white"/>
  <circle cx="7" cy="16" r="1" fill="#A5B4FC"/>
  <circle cx="25" cy="16" r="1" fill="#C084FC"/>
  <circle cx="16" cy="7" r="1" fill="#A5B4FC"/>
  <circle cx="16" cy="25" r="1" fill="#C084FC"/>

  <defs>
    <radialGradient id="cortex_sphere_base" cx="0" cy="0" r="1" gradientUnits="userSpaceOnUse" gradientTransform="translate(16 16) rotate(90) scale(16)">
      <stop stop-color="#1E1B4B"/> <stop offset="1" stop-color="#020617"/> </radialGradient>
    <linearGradient id="cortex_active_horiz" x1="0" y1="16" x2="32" y2="16" gradientUnits="userSpaceOnUse">
      <stop stop-color="#818CF8"/> <stop offset="1" stop-color="#A855F7"/> </linearGradient>
    <linearGradient id="cortex_active_vert" x1="16" y1="0" x2="16" y2="32" gradientUnits="userSpaceOnUse">
      <stop stop-color="#6366F1"/>
      <stop offset="1" stop-color="#D8B4FE"/>
    </linearGradient>
  </defs>
</svg>